<?xml version="1.0" encoding="UTF-8" standalone="no"?>
<svg
   width="100mm"
   height="83.422134mm"
   viewBox="0 0 1402 1169.5715"
   version="1.1"
   id="svg634"
   xmlns="http://www.w3.org/2000/svg"
   xmlns:svg="http://www.w3.org/2000/svg">
  <defs
     id="defs634" />
  <path
     d="m 240.23175,119.82358 c -16.32989,13.11921 -27.94438,31.11192 -48.7816,38.07203 -27.10841,14.89271 -28.34985,52.41439 -58.84674,63.48031 -31.29846,18.49831 -28.06988,61.32287 -56.999092,81.60932 C 55.233057,329.36471 56.012911,366.04805 31.657186,390.5305 10.093869,418.77698 4.2037368,455.4058 0.69984134,486.55837 0.10528553,522.98568 5.0524861,560.22816 30.904152,588.6302 c 0.122955,32.76209 22.280939,63.96353 48.942451,83.69173 13.712278,27.08263 39.858437,41.95056 65.925597,54.30428 39.84368,22.16912 82.94854,27.9539 127.16699,26.63143 18.84663,-1.72643 39.92702,-11.21571 59.82379,-9.02394 7.86894,31.93714 19.79427,70.75813 47.58333,95.32363 38.95004,38.61235 96.31465,52.85078 147.76209,56.52279 54.87007,-1.39358 110.93394,-23.15965 160.21526,-51.24165 15.47927,13.45621 14.94482,41.69547 30.70831,57.82532 10.69089,22.694 35.24835,30.20679 55.42128,41.38724 5.42259,46.26521 58.55392,61.65437 70.84615,104.62387 18.11853,36.164 27.55292,77.3818 46.48101,112.4359 24.17756,11.6813 58.50677,10.8311 79.4601,-6.6369 3.62063,-27.08 -9.08243,-56.4727 -11.8241,-84.454 -2.02177,-25.9269 -6.1891,-51.8487 -5.07225,-77.99796 19.47157,0.75275 42.53578,10.34396 63.00164,14.01806 22.1684,2.5836 45.7413,0.5876 67.8514,-1.2449 23.2305,-6.17911 46.7531,-7.64843 68.6624,-20.40489 26.8607,-1.89423 44.0731,-23.74254 66.9064,-34.199 10.8803,-15.07994 27.5748,-24.8659 34.4633,-42.64244 9.0801,-13.05658 17.1812,-28.01714 19.946,-43.37937 2.6429,-16.31427 5.7551,-37.27309 -4.6592,-53.12862 -13.3784,-29.06613 22.2023,-9.46633 36.2877,-20.34053 37.1578,-9.3729 57.7875,-47.37504 66.0405,-81.91003 23.3261,-32.14777 28.127,-71.48288 28.5015,-109.25754 -4.7984,-17.10816 -12.1658,-42.61825 -3.7856,-62.06795 1.1831,-43.80645 -11.9272,-88.93636 -36.5535,-125.4547 -1.3731,-33.98938 -15.6679,-68.2959 -43.61,-90.49058 -0.8024,-35.79361 -25.207,-64.92891 -54.5123,-82.85884 -20.1129,-43.64595 -47.6311,-88.71289 -96.2695,-103.8814 -16.3817,-18.95431 -35.4868,-38.655841 -61.1703,-46.057916 -20.4148,-11.457155 -35.0688,-34.064729 -60.099,-38.86669 C 1016.12,42.156857 988.32891,31.655576 960.11406,21.059412 930.898,13.079723 901.95552,7.926699 872.96124,10.983278 856.04981,15.430575 836.8669,2.3707715 819.38616,1.1417186 793.16439,-1.9530439 768.58949,10.587623 742.83606,12.979284 703.39106,-4.9652006 660.75243,2.5381671 620.72829,15.159779 596.67428,14.07094 572.78917,9.7367799 549.1576,16.065537 508.51936,18.90951 473.14364,41.987263 432.11539,43.506226 381.24604,56.435338 330.35933,71.45561 287.11241,102.37961 c -16.31236,4.22482 -32.04899,9.30163 -46.88066,17.44397 z"
     fill="#efbb07"
     stroke="#efbb07"
     stroke-width="1.3083"
     stroke-linejoin="round"
     id="path1"
     style="display:inline;fill:none" />
</svg>
